<svg width="400" height="400" viewBox="0 0 400 400" fill="none" xmlns="http://www.w3.org/2000/svg">
    <g transform="translate(100, 100)">
        <!-- Large WiFi Symbol -->
        <path d="M100 50 C100 25 125 6 156 6 C187 6 212 25 212 50" stroke="white" stroke-width="12" fill="none"/>
        <path d="M100 80 C100 65 125 53 156 53 C187 53 212 65 212 80" stroke="white" stroke-width="12" fill="none"/>
        <path d="M100 110 C100 103 125 98 156 98 C187 98 212 103 212 110" stroke="white" stroke-width="12" fill="none"/>
        <circle cx="156" cy="130" r="12" fill="white"/>
        
        <!-- Shield -->
        <path d="M126 170 Q126 145 151 145 L161 145 Q186 145 186 170 L186 190 Q186 215 161 215 L151 215 Q126 215 126 190 Z" fill="white" stroke="none"/>
        <text x="156" y="190" text-anchor="middle" fill="#512BD4" font-family="Arial" font-size="20" font-weight="bold">PF</text>
    </g>
</svg>